<mxfile host="app.diagrams.net" modified="2021-04-06T03:17:22.892Z" agent="5.0 (Windows NT 10.0; Win64; x64) AppleWebKit/537.36 (KHTML, like Gecko) Chrome/89.0.4389.114 Safari/537.36" etag="pnNtvS50599hVS4a4-lH" version="14.5.7" type="github">
  <diagram id="2DQWzsFpLPsIe5vMjnt6" name="Page-1">
    <mxGraphModel dx="2568" dy="524" grid="1" gridSize="10" guides="1" tooltips="1" connect="1" arrows="1" fold="1" page="1" pageScale="1" pageWidth="850" pageHeight="1100" math="0" shadow="0">
      <root>
        <mxCell id="0" />
        <mxCell id="1" parent="0" />
        <mxCell id="-qaemHOf1_88DgNMOJij-1" value="&lt;font size=&quot;3&quot;&gt;&lt;b&gt;We are using git version control to roll back or roll forward to any save point we want&lt;/b&gt;&lt;/font&gt;" style="rounded=1;whiteSpace=wrap;html=1;arcSize=23;" parent="1" vertex="1">
          <mxGeometry x="-1700" width="850" height="60" as="geometry" />
        </mxCell>
        <mxCell id="-qaemHOf1_88DgNMOJij-18" style="edgeStyle=orthogonalEdgeStyle;rounded=0;orthogonalLoop=1;jettySize=auto;html=1;exitX=1;exitY=0.5;exitDx=0;exitDy=0;entryX=0;entryY=0.5;entryDx=0;entryDy=0;" parent="1" source="-qaemHOf1_88DgNMOJij-4" target="-qaemHOf1_88DgNMOJij-6" edge="1">
          <mxGeometry relative="1" as="geometry" />
        </mxCell>
        <mxCell id="-qaemHOf1_88DgNMOJij-4" value="First add git by using command git init inside the directory you have the file" style="text;html=1;fillColor=#f5f5f5;align=center;verticalAlign=middle;whiteSpace=wrap;rounded=0;fontColor=#333333;strokeColor=#000000;" parent="1" vertex="1">
          <mxGeometry x="-1680" y="80" width="200" height="80" as="geometry" />
        </mxCell>
        <mxCell id="-qaemHOf1_88DgNMOJij-9" style="edgeStyle=orthogonalEdgeStyle;rounded=0;orthogonalLoop=1;jettySize=auto;html=1;" parent="1" source="-qaemHOf1_88DgNMOJij-6" target="-qaemHOf1_88DgNMOJij-8" edge="1">
          <mxGeometry relative="1" as="geometry">
            <Array as="points">
              <mxPoint x="-1210" y="120" />
              <mxPoint x="-1210" y="100" />
            </Array>
          </mxGeometry>
        </mxCell>
        <mxCell id="-qaemHOf1_88DgNMOJij-13" style="edgeStyle=orthogonalEdgeStyle;rounded=0;orthogonalLoop=1;jettySize=auto;html=1;exitX=1;exitY=0.5;exitDx=0;exitDy=0;" parent="1" source="-qaemHOf1_88DgNMOJij-6" target="-qaemHOf1_88DgNMOJij-12" edge="1">
          <mxGeometry relative="1" as="geometry">
            <Array as="points">
              <mxPoint x="-1210" y="120" />
              <mxPoint x="-1210" y="140" />
            </Array>
          </mxGeometry>
        </mxCell>
        <mxCell id="-qaemHOf1_88DgNMOJij-6" value="Then add the file you want to add by using:" style="text;html=1;fillColor=#f5f5f5;align=center;verticalAlign=middle;whiteSpace=wrap;rounded=0;fontColor=#333333;strokeColor=#000000;" parent="1" vertex="1">
          <mxGeometry x="-1440" y="80" width="200" height="80" as="geometry" />
        </mxCell>
        <mxCell id="-qaemHOf1_88DgNMOJij-8" value="git add (file.name)" style="rounded=1;whiteSpace=wrap;html=1;strokeColor=#000000;gradientColor=none;" parent="1" vertex="1">
          <mxGeometry x="-1160" y="80" width="200" height="40" as="geometry" />
        </mxCell>
        <mxCell id="-qaemHOf1_88DgNMOJij-10" value="Single File" style="text;html=1;strokeColor=none;fillColor=none;align=center;verticalAlign=middle;whiteSpace=wrap;rounded=0;" parent="1" vertex="1">
          <mxGeometry x="-1230" y="70" width="60" height="30" as="geometry" />
        </mxCell>
        <mxCell id="-qaemHOf1_88DgNMOJij-12" value="git add ." style="rounded=1;whiteSpace=wrap;html=1;strokeColor=#000000;gradientColor=none;" parent="1" vertex="1">
          <mxGeometry x="-1160" y="120" width="200" height="40" as="geometry" />
        </mxCell>
        <mxCell id="-qaemHOf1_88DgNMOJij-14" value="Add Full Directory" style="text;html=1;strokeColor=none;fillColor=none;align=center;verticalAlign=middle;whiteSpace=wrap;rounded=0;" parent="1" vertex="1">
          <mxGeometry x="-1230" y="140" width="60" height="30" as="geometry" />
        </mxCell>
        <mxCell id="feYk2-0pNa3UwTStaALc-2" style="edgeStyle=orthogonalEdgeStyle;rounded=0;orthogonalLoop=1;jettySize=auto;html=1;entryX=0.5;entryY=0;entryDx=0;entryDy=0;" parent="1" source="-qaemHOf1_88DgNMOJij-15" target="feYk2-0pNa3UwTStaALc-1" edge="1">
          <mxGeometry relative="1" as="geometry" />
        </mxCell>
        <mxCell id="-qaemHOf1_88DgNMOJij-15" value="git commit -m (comment)&lt;br&gt;To save file to Git" style="text;html=1;fillColor=#f5f5f5;align=center;verticalAlign=middle;whiteSpace=wrap;rounded=0;fontColor=#333333;strokeColor=#666666;" parent="1" vertex="1">
          <mxGeometry x="-960" y="200" width="80" height="80" as="geometry" />
        </mxCell>
        <mxCell id="-qaemHOf1_88DgNMOJij-16" value="" style="endArrow=classic;html=1;entryX=0.5;entryY=0;entryDx=0;entryDy=0;" parent="1" target="-qaemHOf1_88DgNMOJij-15" edge="1">
          <mxGeometry width="50" height="50" relative="1" as="geometry">
            <mxPoint x="-960" y="100" as="sourcePoint" />
            <mxPoint x="-910" y="50" as="targetPoint" />
            <Array as="points">
              <mxPoint x="-920" y="100" />
            </Array>
          </mxGeometry>
        </mxCell>
        <mxCell id="-qaemHOf1_88DgNMOJij-17" value="" style="endArrow=classic;html=1;entryX=0.5;entryY=0;entryDx=0;entryDy=0;exitX=1;exitY=0.5;exitDx=0;exitDy=0;" parent="1" source="-qaemHOf1_88DgNMOJij-12" target="-qaemHOf1_88DgNMOJij-15" edge="1">
          <mxGeometry width="50" height="50" relative="1" as="geometry">
            <mxPoint x="-1310" y="180" as="sourcePoint" />
            <mxPoint x="-1260" y="130" as="targetPoint" />
            <Array as="points">
              <mxPoint x="-920" y="140" />
            </Array>
          </mxGeometry>
        </mxCell>
        <mxCell id="-qaemHOf1_88DgNMOJij-19" value="&lt;b&gt;&lt;font style=&quot;font-size: 14px&quot;&gt;Command git status can be used to identify modified files added files non added files etc.&lt;/font&gt;&lt;/b&gt;" style="text;html=1;strokeColor=#d6b656;fillColor=#fff2cc;align=center;verticalAlign=middle;whiteSpace=wrap;rounded=0;" parent="1" vertex="1">
          <mxGeometry x="-1350" y="190" width="310" height="50" as="geometry" />
        </mxCell>
        <mxCell id="-qaemHOf1_88DgNMOJij-20" value="&lt;b style=&quot;font-size: 14px&quot;&gt;git diff (file.name)&lt;br&gt;can give the diffrences beetween commited file and modified files&lt;/b&gt;" style="text;html=1;strokeColor=#d79b00;fillColor=#ffe6cc;align=center;verticalAlign=middle;whiteSpace=wrap;rounded=0;" parent="1" vertex="1">
          <mxGeometry x="-1350" y="240" width="310" height="50" as="geometry" />
        </mxCell>
        <mxCell id="-qaemHOf1_88DgNMOJij-21" value="&lt;b style=&quot;font-size: 14px&quot;&gt;git checkout (file.name)&lt;br&gt;rolls back to already commited versions&lt;/b&gt;" style="text;html=1;strokeColor=#b85450;fillColor=#f8cecc;align=center;verticalAlign=middle;whiteSpace=wrap;rounded=0;" parent="1" vertex="1">
          <mxGeometry x="-1350" y="290" width="310" height="40" as="geometry" />
        </mxCell>
        <mxCell id="feYk2-0pNa3UwTStaALc-5" style="edgeStyle=orthogonalEdgeStyle;rounded=0;orthogonalLoop=1;jettySize=auto;html=1;exitX=0.5;exitY=1;exitDx=0;exitDy=0;entryX=0.5;entryY=0;entryDx=0;entryDy=0;" parent="1" source="feYk2-0pNa3UwTStaALc-1" target="feYk2-0pNa3UwTStaALc-4" edge="1">
          <mxGeometry relative="1" as="geometry" />
        </mxCell>
        <mxCell id="feYk2-0pNa3UwTStaALc-1" value="To upload the git repository online to access it worldwide&amp;nbsp;" style="text;html=1;fillColor=#f5f5f5;align=center;verticalAlign=middle;whiteSpace=wrap;rounded=0;fontColor=#333333;strokeColor=#000000;" parent="1" vertex="1">
          <mxGeometry x="-960" y="320" width="80" height="80" as="geometry" />
        </mxCell>
        <mxCell id="feYk2-0pNa3UwTStaALc-7" style="edgeStyle=orthogonalEdgeStyle;rounded=0;orthogonalLoop=1;jettySize=auto;html=1;exitX=0.5;exitY=1;exitDx=0;exitDy=0;entryX=0.827;entryY=0;entryDx=0;entryDy=0;entryPerimeter=0;" parent="1" source="feYk2-0pNa3UwTStaALc-4" target="feYk2-0pNa3UwTStaALc-6" edge="1">
          <mxGeometry relative="1" as="geometry" />
        </mxCell>
        <mxCell id="feYk2-0pNa3UwTStaALc-4" value="Create a new repository on git hub&lt;br&gt;" style="text;html=1;fillColor=#f5f5f5;align=center;verticalAlign=middle;whiteSpace=wrap;rounded=0;fontColor=#333333;strokeColor=#000000;" parent="1" vertex="1">
          <mxGeometry x="-960" y="440" width="80" height="80" as="geometry" />
        </mxCell>
        <mxCell id="feYk2-0pNa3UwTStaALc-16" style="edgeStyle=orthogonalEdgeStyle;rounded=0;orthogonalLoop=1;jettySize=auto;html=1;" parent="1" edge="1">
          <mxGeometry relative="1" as="geometry">
            <mxPoint x="-920" y="562" as="sourcePoint" />
            <mxPoint x="-920" y="599" as="targetPoint" />
          </mxGeometry>
        </mxCell>
        <mxCell id="feYk2-0pNa3UwTStaALc-6" value="&lt;b&gt;git remote add origin (repository url)&lt;/b&gt;" style="text;html=1;strokeColor=#d6b656;fillColor=#fff2cc;align=center;verticalAlign=middle;whiteSpace=wrap;rounded=0;gradientColor=#ffd966;" parent="1" vertex="1">
          <mxGeometry x="-1100" y="540" width="220" height="20" as="geometry" />
        </mxCell>
        <mxCell id="feYk2-0pNa3UwTStaALc-8" value="This adds your git hub repository to your git locally" style="rounded=1;whiteSpace=wrap;html=1;strokeColor=#000000;arcSize=0;" parent="1" vertex="1">
          <mxGeometry x="-1350" y="520" width="180" height="60" as="geometry" />
        </mxCell>
        <mxCell id="feYk2-0pNa3UwTStaALc-9" value="" style="endArrow=none;dashed=1;html=1;dashPattern=1 3;strokeWidth=2;entryX=0;entryY=0;entryDx=0;entryDy=0;exitX=1;exitY=0;exitDx=0;exitDy=0;" parent="1" source="feYk2-0pNa3UwTStaALc-8" target="feYk2-0pNa3UwTStaALc-6" edge="1">
          <mxGeometry width="50" height="50" relative="1" as="geometry">
            <mxPoint x="-1300" y="460" as="sourcePoint" />
            <mxPoint x="-1250" y="410" as="targetPoint" />
          </mxGeometry>
        </mxCell>
        <mxCell id="feYk2-0pNa3UwTStaALc-11" value="" style="endArrow=none;dashed=1;html=1;dashPattern=1 3;strokeWidth=2;entryX=0;entryY=1;entryDx=0;entryDy=0;exitX=1;exitY=1;exitDx=0;exitDy=0;" parent="1" source="feYk2-0pNa3UwTStaALc-8" target="feYk2-0pNa3UwTStaALc-6" edge="1">
          <mxGeometry width="50" height="50" relative="1" as="geometry">
            <mxPoint x="-1160" y="530" as="sourcePoint" />
            <mxPoint x="-1089.9999999999995" y="550" as="targetPoint" />
          </mxGeometry>
        </mxCell>
        <mxCell id="feYk2-0pNa3UwTStaALc-12" value="&lt;b&gt;git puish -u origin master&lt;/b&gt;" style="text;html=1;strokeColor=#d6b656;fillColor=#fff2cc;align=center;verticalAlign=middle;whiteSpace=wrap;rounded=0;gradientColor=#ffd966;" parent="1" vertex="1">
          <mxGeometry x="-1100" y="600" width="220" height="20" as="geometry" />
        </mxCell>
        <mxCell id="feYk2-0pNa3UwTStaALc-13" value="This pushes your local repository to online repository" style="rounded=1;whiteSpace=wrap;html=1;strokeColor=#000000;arcSize=0;" parent="1" vertex="1">
          <mxGeometry x="-1350" y="580" width="180" height="60" as="geometry" />
        </mxCell>
        <mxCell id="feYk2-0pNa3UwTStaALc-14" value="" style="endArrow=none;dashed=1;html=1;dashPattern=1 3;strokeWidth=2;entryX=0;entryY=0;entryDx=0;entryDy=0;exitX=1;exitY=0;exitDx=0;exitDy=0;" parent="1" source="feYk2-0pNa3UwTStaALc-13" target="feYk2-0pNa3UwTStaALc-12" edge="1">
          <mxGeometry width="50" height="50" relative="1" as="geometry">
            <mxPoint x="-1160" y="590" as="sourcePoint" />
            <mxPoint x="-1090.0000000000002" y="570" as="targetPoint" />
          </mxGeometry>
        </mxCell>
        <mxCell id="feYk2-0pNa3UwTStaALc-15" value="" style="endArrow=none;dashed=1;html=1;dashPattern=1 3;strokeWidth=2;entryX=0;entryY=1;entryDx=0;entryDy=0;exitX=1;exitY=1;exitDx=0;exitDy=0;" parent="1" source="feYk2-0pNa3UwTStaALc-13" target="feYk2-0pNa3UwTStaALc-12" edge="1">
          <mxGeometry width="50" height="50" relative="1" as="geometry">
            <mxPoint x="-1160" y="590" as="sourcePoint" />
            <mxPoint x="-1089.9999999999995" y="610" as="targetPoint" />
          </mxGeometry>
        </mxCell>
        <mxCell id="4F9KUSmmqrAlT4ERBegV-1" value="&lt;b&gt;&lt;font style=&quot;font-size: 17px&quot;&gt;By creating multiple commits it creates a timeline which we can go back on if we want to like so:&lt;/font&gt;&lt;/b&gt;" style="text;html=1;strokeColor=#432D57;align=center;verticalAlign=middle;whiteSpace=wrap;rounded=0;fontColor=#ffffff;fillColor=#000000;" parent="1" vertex="1">
          <mxGeometry x="-1680" y="280" width="280" height="70" as="geometry" />
        </mxCell>
        <mxCell id="4F9KUSmmqrAlT4ERBegV-8" style="edgeStyle=orthogonalEdgeStyle;rounded=0;orthogonalLoop=1;jettySize=auto;html=1;exitX=1;exitY=0.5;exitDx=0;exitDy=0;entryX=0;entryY=0.5;entryDx=0;entryDy=0;" parent="1" source="4F9KUSmmqrAlT4ERBegV-3" target="4F9KUSmmqrAlT4ERBegV-4" edge="1">
          <mxGeometry relative="1" as="geometry" />
        </mxCell>
        <mxCell id="4F9KUSmmqrAlT4ERBegV-3" value="&lt;b&gt;1&lt;/b&gt;" style="ellipse;whiteSpace=wrap;html=1;aspect=fixed;fillColor=#FF8000;" parent="1" vertex="1">
          <mxGeometry x="-1680" y="380" width="30" height="30" as="geometry" />
        </mxCell>
        <mxCell id="4F9KUSmmqrAlT4ERBegV-9" style="edgeStyle=orthogonalEdgeStyle;rounded=0;orthogonalLoop=1;jettySize=auto;html=1;exitX=1;exitY=0.5;exitDx=0;exitDy=0;" parent="1" source="4F9KUSmmqrAlT4ERBegV-4" target="4F9KUSmmqrAlT4ERBegV-5" edge="1">
          <mxGeometry relative="1" as="geometry" />
        </mxCell>
        <mxCell id="4F9KUSmmqrAlT4ERBegV-4" value="2" style="ellipse;whiteSpace=wrap;html=1;aspect=fixed;fillColor=#FF8000;fontStyle=1" parent="1" vertex="1">
          <mxGeometry x="-1630" y="380" width="30" height="30" as="geometry" />
        </mxCell>
        <mxCell id="4F9KUSmmqrAlT4ERBegV-10" style="edgeStyle=orthogonalEdgeStyle;rounded=0;orthogonalLoop=1;jettySize=auto;html=1;exitX=1;exitY=0.5;exitDx=0;exitDy=0;entryX=0;entryY=0.5;entryDx=0;entryDy=0;" parent="1" source="4F9KUSmmqrAlT4ERBegV-5" target="4F9KUSmmqrAlT4ERBegV-7" edge="1">
          <mxGeometry relative="1" as="geometry" />
        </mxCell>
        <mxCell id="4F9KUSmmqrAlT4ERBegV-5" value="&lt;b&gt;3&lt;/b&gt;" style="ellipse;whiteSpace=wrap;html=1;aspect=fixed;fillColor=#FF8000;" parent="1" vertex="1">
          <mxGeometry x="-1580" y="380" width="30" height="30" as="geometry" />
        </mxCell>
        <mxCell id="4F9KUSmmqrAlT4ERBegV-12" style="edgeStyle=orthogonalEdgeStyle;rounded=0;orthogonalLoop=1;jettySize=auto;html=1;exitX=1;exitY=0.5;exitDx=0;exitDy=0;entryX=0;entryY=0.5;entryDx=0;entryDy=0;" parent="1" source="4F9KUSmmqrAlT4ERBegV-7" target="4F9KUSmmqrAlT4ERBegV-11" edge="1">
          <mxGeometry relative="1" as="geometry" />
        </mxCell>
        <mxCell id="4F9KUSmmqrAlT4ERBegV-7" value="&lt;b&gt;4&lt;/b&gt;" style="ellipse;whiteSpace=wrap;html=1;aspect=fixed;fillColor=#FF8000;" parent="1" vertex="1">
          <mxGeometry x="-1530" y="380" width="30" height="30" as="geometry" />
        </mxCell>
        <mxCell id="4F9KUSmmqrAlT4ERBegV-15" style="edgeStyle=orthogonalEdgeStyle;rounded=0;orthogonalLoop=1;jettySize=auto;html=1;exitX=1;exitY=0.5;exitDx=0;exitDy=0;" parent="1" source="4F9KUSmmqrAlT4ERBegV-11" target="4F9KUSmmqrAlT4ERBegV-13" edge="1">
          <mxGeometry relative="1" as="geometry" />
        </mxCell>
        <mxCell id="4F9KUSmmqrAlT4ERBegV-11" value="&lt;b&gt;5&lt;/b&gt;" style="ellipse;whiteSpace=wrap;html=1;aspect=fixed;fillColor=#FF8000;" parent="1" vertex="1">
          <mxGeometry x="-1480" y="380" width="30" height="30" as="geometry" />
        </mxCell>
        <mxCell id="4F9KUSmmqrAlT4ERBegV-13" value="&lt;b&gt;6&lt;/b&gt;" style="ellipse;whiteSpace=wrap;html=1;aspect=fixed;fillColor=#FF8000;" parent="1" vertex="1">
          <mxGeometry x="-1430" y="380" width="30" height="30" as="geometry" />
        </mxCell>
        <mxCell id="xdMVu-1ozZl_Vfi0Khe5-2" value="&lt;font size=&quot;3&quot;&gt;&lt;b&gt;GIT BRANCHING&lt;/b&gt;&lt;/font&gt;" style="rounded=1;whiteSpace=wrap;html=1;fillColor=#fff2cc;strokeColor=#d6b656;" vertex="1" parent="1">
          <mxGeometry x="-1660" y="200" width="240" height="60" as="geometry" />
        </mxCell>
        <mxCell id="xdMVu-1ozZl_Vfi0Khe5-3" value="" style="endArrow=none;html=1;" edge="1" parent="1">
          <mxGeometry width="50" height="50" relative="1" as="geometry">
            <mxPoint x="-1700" y="180" as="sourcePoint" />
            <mxPoint x="-1380" y="180" as="targetPoint" />
          </mxGeometry>
        </mxCell>
        <mxCell id="xdMVu-1ozZl_Vfi0Khe5-5" value="" style="endArrow=none;html=1;" edge="1" parent="1">
          <mxGeometry width="50" height="50" relative="1" as="geometry">
            <mxPoint x="-1380" y="560" as="sourcePoint" />
            <mxPoint x="-1380" y="180" as="targetPoint" />
          </mxGeometry>
        </mxCell>
        <mxCell id="xdMVu-1ozZl_Vfi0Khe5-11" style="edgeStyle=orthogonalEdgeStyle;rounded=0;orthogonalLoop=1;jettySize=auto;html=1;exitX=1;exitY=0.5;exitDx=0;exitDy=0;entryX=0;entryY=0.5;entryDx=0;entryDy=0;fontColor=#FF8000;" edge="1" parent="1" source="xdMVu-1ozZl_Vfi0Khe5-6" target="xdMVu-1ozZl_Vfi0Khe5-9">
          <mxGeometry relative="1" as="geometry" />
        </mxCell>
        <mxCell id="xdMVu-1ozZl_Vfi0Khe5-6" value="&lt;b&gt;3&lt;/b&gt;" style="ellipse;whiteSpace=wrap;html=1;aspect=fixed;fillColor=#9933FF;" vertex="1" parent="1">
          <mxGeometry x="-1595" y="430" width="30" height="30" as="geometry" />
        </mxCell>
        <mxCell id="xdMVu-1ozZl_Vfi0Khe5-12" style="edgeStyle=orthogonalEdgeStyle;rounded=0;orthogonalLoop=1;jettySize=auto;html=1;exitX=1;exitY=0.5;exitDx=0;exitDy=0;entryX=0;entryY=0.5;entryDx=0;entryDy=0;fontColor=#FF8000;" edge="1" parent="1" source="xdMVu-1ozZl_Vfi0Khe5-9" target="xdMVu-1ozZl_Vfi0Khe5-10">
          <mxGeometry relative="1" as="geometry" />
        </mxCell>
        <mxCell id="xdMVu-1ozZl_Vfi0Khe5-9" value="&lt;b&gt;4&lt;/b&gt;" style="ellipse;whiteSpace=wrap;html=1;aspect=fixed;fillColor=#9933FF;" vertex="1" parent="1">
          <mxGeometry x="-1530" y="430" width="30" height="30" as="geometry" />
        </mxCell>
        <mxCell id="xdMVu-1ozZl_Vfi0Khe5-10" value="&lt;b&gt;5&lt;/b&gt;" style="ellipse;whiteSpace=wrap;html=1;aspect=fixed;fillColor=#9933FF;" vertex="1" parent="1">
          <mxGeometry x="-1480" y="430" width="30" height="30" as="geometry" />
        </mxCell>
        <mxCell id="xdMVu-1ozZl_Vfi0Khe5-14" value="" style="endArrow=classic;html=1;fontColor=#FF8000;entryX=0;entryY=1;entryDx=0;entryDy=0;exitX=1;exitY=0.5;exitDx=0;exitDy=0;" edge="1" parent="1" source="xdMVu-1ozZl_Vfi0Khe5-10" target="4F9KUSmmqrAlT4ERBegV-13">
          <mxGeometry width="50" height="50" relative="1" as="geometry">
            <mxPoint x="-1330" y="380" as="sourcePoint" />
            <mxPoint x="-1280" y="330" as="targetPoint" />
          </mxGeometry>
        </mxCell>
        <mxCell id="xdMVu-1ozZl_Vfi0Khe5-17" value="" style="endArrow=classic;html=1;fontColor=#FF8000;exitX=0.5;exitY=1;exitDx=0;exitDy=0;entryX=0;entryY=0;entryDx=0;entryDy=0;" edge="1" parent="1" source="4F9KUSmmqrAlT4ERBegV-4" target="xdMVu-1ozZl_Vfi0Khe5-6">
          <mxGeometry width="50" height="50" relative="1" as="geometry">
            <mxPoint x="-1330" y="380" as="sourcePoint" />
            <mxPoint x="-1280" y="330" as="targetPoint" />
          </mxGeometry>
        </mxCell>
        <mxCell id="xdMVu-1ozZl_Vfi0Khe5-18" value="&lt;b&gt;git branch&lt;/b&gt;" style="text;html=1;strokeColor=#d6b656;fillColor=#fff2cc;align=center;verticalAlign=middle;whiteSpace=wrap;rounded=0;gradientColor=#ffd966;" vertex="1" parent="1">
          <mxGeometry x="-1700" y="480" width="220" height="20" as="geometry" />
        </mxCell>
      </root>
    </mxGraphModel>
  </diagram>
</mxfile>
